<?xml version="1.0" encoding="utf-8"?>
<svg width="24px" height="24px" viewBox="0 0 24 24" version="1.1" xmlns:xlink="http://www.w3.org/1999/xlink" xmlns="http://www.w3.org/2000/svg">
  <defs>
    <path d="M24 0L24 0L24 24L0 24L0 0L24 0Z" id="path_1" />
    <clipPath id="clip_1">
      <use xlink:href="#path_1" clip-rule="evenodd" fill-rule="evenodd" />
    </clipPath>
  </defs>
  <g id="bxl-instagram" clip-path="url(#clip_1)">
    <path d="M24 0L24 0L24 24L0 24L0 0L24 0Z" id="bxl-instagram" fill="none" stroke="none" />
    <path d="M11.999 7.377C9.44523 7.377 7.375 9.44724 7.375 12.001C7.375 14.5548 9.44523 16.625 11.999 16.625C14.5528 16.625 16.623 14.5548 16.623 12.001C16.623 9.44724 14.5528 7.377 11.999 7.377L11.999 7.377ZM11.999 15.004C10.9255 15.0043 9.93346 14.4318 9.39665 13.5022C8.85985 12.5726 8.85989 11.4272 9.39677 10.4976C9.93365 9.56803 10.9258 8.99559 11.9992 8.996C13.6579 8.99651 15.0023 10.3412 15.0023 11.9999C15.0024 13.6585 13.6581 15.0034 11.9995 15.004L11.999 15.004Z" id="Shape" fill="#FFFFFF" fill-rule="evenodd" stroke="none" />
    <path d="M15.728 7.207C15.728 6.61164 16.2106 6.129 16.806 6.129C17.4014 6.129 17.884 6.61164 17.884 7.207C17.884 7.80236 17.4014 8.285 16.806 8.285C16.2106 8.285 15.728 7.80236 15.728 7.207Z" id="Circle" fill="#FFFFFF" fill-rule="evenodd" stroke="none" />
    <path d="M20.533 6.111C20.0649 4.90218 19.109 3.94664 17.9 3.479C17.2003 3.21636 16.4612 3.07434 15.714 3.059C14.751 3.017 14.446 3.005 12.004 3.005C9.562 3.005 9.249 3.005 8.294 3.059C7.54739 3.07356 6.80876 3.2156 6.11 3.479C4.90066 3.94611 3.94457 4.90184 3.477 6.111C3.21431 6.81061 3.07262 7.54984 3.058 8.297C3.015 9.259 3.002 9.564 3.002 12.007C3.002 14.449 3.002 14.76 3.058 15.717C3.073 16.465 3.214 17.203 3.477 17.904C3.94586 19.1127 4.90198 20.0681 6.111 20.536C6.80844 20.8092 7.54737 20.9614 8.296 20.986C9.259 21.028 9.564 21.041 12.006 21.041C14.448 21.041 14.761 21.041 15.716 20.986C16.4631 20.9708 17.2022 20.8291 17.902 20.567C19.1106 20.0983 20.0663 19.1426 20.535 17.934C20.798 17.234 20.939 16.496 20.954 15.748C20.997 14.786 21.01 14.481 21.01 12.038C21.01 9.595 21.01 9.285 20.954 8.328C20.9424 7.57023 20.7999 6.8202 20.533 6.11096L20.533 6.111ZM19.315 15.643C19.3086 16.2193 19.2034 16.7902 19.004 17.331C18.7003 18.1173 18.0785 18.7388 17.292 19.042C16.7572 19.2404 16.1924 19.3456 15.622 19.353C14.672 19.397 14.404 19.408 11.968 19.408C9.53001 19.408 9.28101 19.408 8.31301 19.353C7.74294 19.346 7.17833 19.2408 6.64401 19.042C5.85468 18.7406 5.23004 18.1189 4.92501 17.331C4.72845 16.796 4.62332 16.2318 4.61401 15.662C4.57101 14.712 4.56101 14.444 4.56101 12.008C4.56101 9.57099 4.56101 9.32199 4.61401 8.35299C4.62047 7.77702 4.72566 7.20642 4.925 6.666C5.23 5.877 5.855 5.256 6.644 4.954C7.17859 4.75614 7.74303 4.65096 8.313 4.643C9.264 4.6 9.531 4.588 11.968 4.588C14.405 4.588 14.655 4.588 15.622 4.643C16.1924 4.64986 16.7574 4.75507 17.292 4.954C18.0785 5.25787 18.7001 5.87955 19.004 6.666C19.2006 7.20095 19.3057 7.76516 19.315 8.335C19.358 9.286 19.369 9.553 19.369 11.99C19.369 14.426 19.369 14.688 19.326 15.644L19.315 15.644L19.315 15.643Z" id="Shape" fill="#FFFFFF" fill-rule="evenodd" stroke="none" />
  </g>
</svg>