<?xml version="1.0" encoding="utf-8"?>
<svg width="24px" height="24px" viewBox="0 0 24 24" version="1.1" xmlns:xlink="http://www.w3.org/1999/xlink" xmlns="http://www.w3.org/2000/svg">
  <defs>
    <path d="M24 0L24 0L24 24L0 24L0 0L24 0Z" id="path_1" />
    <clipPath id="clip_1">
      <use xlink:href="#path_1" clip-rule="evenodd" fill-rule="evenodd" />
    </clipPath>
  </defs>
  <g id="bxl-twitter" clip-path="url(#clip_1)">
    <path d="M24 0L24 0L24 24L0 24L0 0L24 0Z" id="bxl-twitter" fill="none" stroke="none" />
    <path d="M19.633 7.997C19.646 8.172 19.646 8.346 19.646 8.52C19.646 13.845 15.593 19.981 8.186 19.981C5.904 19.981 3.784 19.32 2 18.172C2.324 18.209 2.636 18.222 2.973 18.222C4.78599 18.2264 6.54764 17.6201 7.974 16.501C6.25078 16.4698 4.73752 15.3478 4.207 13.708C4.456 13.745 4.706 13.77 4.968 13.77C5.329 13.77 5.692 13.72 6.029 13.633C4.14801 13.2532 2.7963 11.5989 2.799 9.68L2.799 9.63C3.336 9.929 3.959 10.116 4.619 10.141C3.49597 9.39473 2.8216 8.13537 2.823 6.787C2.823 6.039 3.022 5.353 3.371 4.755C5.41786 7.27281 8.43637 8.8046 11.677 8.97C11.615 8.67 11.577 8.359 11.577 8.047C11.5765 6.97851 12.0007 5.95366 12.7562 5.19816C13.5117 4.44265 14.5366 4.01846 15.605 4.019C16.765 4.019 17.812 4.505 18.548 5.291C19.4498 5.11661 20.3146 4.78742 21.104 4.318C20.8034 5.24881 20.1738 6.0381 19.333 6.538C20.1328 6.44678 20.9145 6.23645 21.652 5.91399C21.1012 6.71709 20.4186 7.42134 19.633 7.99699L19.633 7.997Z" id="Shape" fill="#FFFFFF" stroke="none" />
  </g>
</svg>